<svg xmlns="http://www.w3.org/2000/svg" width="24" height="24" viewBox="0 0 24 24"><path fill="#30313B" d="M7.09 0C3.18 0 0 3.18 0 7.09v9.82C0 20.82 3.18 24 7.09 24h9.82c3.91 0 7.09-3.18 7.09-7.09V7.09C24 3.18 20.82 0 16.91 0H7.09zm11.455 4.364c.6 0 1.091.49 1.091 1.09 0 .6-.49 1.091-1.09 1.091-.6 0-1.091-.49-1.091-1.09 0-.6.49-1.091 1.09-1.091zM12 6c3.31 0 6 2.69 6 6s-2.69 6-6 6-6-2.69-6-6 2.69-6 6-6zm0 1.09A4.916 4.916 0 0 0 7.09 12 4.916 4.916 0 0 0 12 16.91 4.916 4.916 0 0 0 16.91 12 4.916 4.916 0 0 0 12 7.09z"/></svg>